<svg id="Layer_1" data-name="Layer 1" xmlns="http://www.w3.org/2000/svg" viewBox="0 0 345.7615 478"><defs><style>.cls-1,.cls-7{fill:#c1c3c5;}.cls-1,.cls-2,.cls-3,.cls-4,.cls-5{fill-rule:evenodd;}.cls-2,.cls-6{fill:#fff;}.cls-3{fill:#cdcfd0;}.cls-4{stroke:#000;stroke-linecap:round;stroke-linejoin:round;}</style></defs><title>monster</title><path class="cls-1" d="M248.37,439.1274c-16.9949,0-192.63-10.8451-158.6352,36.8624,13.22,17.346,67.9873,10.84,86.8731,10.84C212.4885,489,248.37,489,284.253,489c15.1089,0,168.0808,0,111.4224-45.5341-13.22-10.845-56.6555-2.1734-73.6529-2.1734-24.552,0-49.1013-2.1651-73.653-2.1651" transform="translate(-77.1193 -11)"/><path class="cls-2" d="M250.024,94.3339c4.6575,9.0547,12.0525,11.148,20.4261,9.0653,8.5627-2.1306,11.6562-9.8979,14.6568-17.2875,15.2364,9.8582,19.958,6.0622,29.449-4.9716,4.7825,3.9183,6.8867,9.6428,11.4592,15.3457-6.8282,1.3461-12.4355,2.5669-18.0853,3.5432-7.246,1.25-7.7461,1.63-7.7088,9.1769.0453,9.4643-.4949,18.8967,2.7266,28.1829,4.6921,13.5449,14.2311,21.4239,27.7438,24.169,7.85,1.5959,15.7128-.6093,22.9986-4.1046,1.83-.8751,3.559-1.96,5.6656-3.1359,3.7189,3.1787,5.2322,7.6872,7.0226,11.8847,5.1285,12.0206,10.0867,24.06,16.2154,35.6841,9.8288,18.636,17.7157,38.2483,20.7879,59.2677,3.1335,21.48-1.1013,41.2195-15.2124,58.5817-15.3563,18.8912-35.1922,28.4966-59.05,30.5128-4.0327.3432-8.1345-.2661-12.1991-.2233-21.0325.2127-42.0731,1.0293-63.0926.5957-21.4557-.4388-42.89-2.0775-64.3352-3.1946q-4.7481-.2435-9.4961-.4949c-17.1837-.9149-33.3326-5.9848-49.213-12.1775-7.3416-2.8622-13.1058-7.9588-18.9446-12.9887-17.3218-14.9281-20.8544-34.54-19.0324-55.964.4045-4.7191.46-9.5468,1.5616-14.1115a183.8573,183.8573,0,0,1,14.4465-38.6286c2.2158-4.4556,4.5246-8.8658,6.6658-13.3613,6.9216-14.5369,15.9337-27.8078,23.996-40.6477,9.4246,1.2077,18.1572,1.9791,26.7412,3.5726,4.0566.7553,7.0542-.3539,10.0733-2.4608a45.8586,45.8586,0,0,0,17.08-21.413c4.1844-10.866,6.28-22.0782,5.2563-33.83-.431-4.99-2.8781-7.8735-7.3523-9.3872-2.7718-.9389-5.586-1.7422-9.3951-2.9208,2.3063-3.2928,4.2667-6.0807,6.2137-8.8577,10.015,6.4452,15.4415,7.4136,28.5792-2.9766-1.33,10.1959-.95,19.8305,10.188,23.9242C237.0031,108.4266,243.3445,101.5718,250.024,94.3339ZM177.2514,271.3391c2.261,0,4.5273.1144,6.7777-.0188,8.1928-.4813,16.16-2.1011,23.2165-6.4184,12.6324-7.73,17.96-19.9367,19.3116-34.0215.6891-7.1662.2713-14.4307-2.8116-21.2482C217.234,195.2282,205.08,188.45,190.4,185.9208c-12.9914-2.24-25.9006-.8167-37.3174,6.2536a35.9169,35.9169,0,0,0-11.8768,11.6748A56.7084,56.7084,0,0,0,133.207,236.2c.83,14.6781,8.8364,24.1369,21.0085,30.88C161.4,271.0624,169.2261,271.7567,177.2514,271.3391Zm130.1143-2.5618c3.1575-.1593,6.3229-.2021,9.4643-.5,13.7549-1.3061,23.9748-8.3126,31.5558-19.62,4.0885-6.0993,4.0646-13.1829,5.4663-20.0165,3.1869-15.59-4.8305-27.6667-17.7342-34.5456-11.1774-5.9584-23.23-6.9719-35.482-7.0809-14.8908-.1332-25.3844,7.9959-32.5054,19.8517-5.5967,9.318-7.6181,20.1227-6.56,31.3028a32.9682,32.9682,0,0,0,23.0278,28.0393A60.6648,60.6648,0,0,0,307.3657,268.7773Z" transform="translate(-77.1193 -11)"/><path class="cls-3" d="M122.3619,139.7136c26.414-11.6908,32.939-18.535,42.7438-44.8343,5.187,1.5188,10.4618,3.0616,15.8722,4.6468.4363,6.4586-2.3061,11.7521-3.91,17.2823a95.1515,95.1515,0,0,1-11.85,24.9535,56.6075,56.6075,0,0,1-4.5674,5.868c-4.7667,5.6365-10.2569,7.3947-17.306,3.9314C136.3031,148.1006,128.9136,145.34,122.3619,139.7136Z" transform="translate(-77.1193 -11)"/><path class="cls-3" d="M147.2756,85.7819c4.639,2.3754,8.6317,4.4183,13.1086,6.7113-.1329,1.9339.2394,4.107-.4762,5.8279-7.2645,17.4738-18.088,31.17-37.7961,35.5779-3.7107.83-5.9612-.0213-8.0305-2.9873a39.8543,39.8543,0,0,1-7.4933-18.8915C123.58,108.7911,139.3223,103.7476,147.2756,85.7819Z" transform="translate(-77.1193 -11)"/><path class="cls-3" d="M377.3322,134.6145c-9.5229-1.0587-16.1385-5.3226-21.1951-13.3054a224.4113,224.4113,0,0,1-13.9252-25.0069c3.8437-3.1308,7.4667-6.0914,11.6162-9.4776,9.2837,12.4943,22.7352,17.08,37.8308,19.8571C390.8556,118.2341,384.5913,126.7009,377.3322,134.6145Z" transform="translate(-77.1193 -11)"/><path class="cls-3" d="M322.9241,104.3223c5.4371-2.2319,9.9883-4.1018,14.5238-5.9666,3.0483,5.3388,5.9824,10.6347,9.0653,15.8351,2.9845,5.0353,5.7244,10.2943,9.342,14.8456,2.4337,3.067,6.1126,5.2,9.4057,7.5039,1.5907,1.1146,3.5723,1.6651,6.5332,2.9873-7.121,4.0645-13.2311,7.7458-19.5592,11.0043-1.24.6358-3.4394-.0452-4.9849-.6543-11.72-4.6259-18.1757-13.9891-21.3733-25.5442C324.0945,117.9094,323.8633,111.0494,322.9241,104.3223Z" transform="translate(-77.1193 -11)"/><path class="cls-2" d="M106.1226,201.29c-3.1548-.4176-6.3174-.6306-9.3872-1.2849-6.24-1.33-10.6852-5.0034-12.34-11.2438a41.4286,41.4286,0,0,1-1.5322-11.35c.2288-9.2834,5.5755-14.84,14.7739-15.2737,8.3895-.399,15.2365,3.4312,21.03,9.2249,2.1412,2.1412,2.4337,4.506.718,7.3122C114.9378,185.9714,110.7218,193.4059,106.1226,201.29Z" transform="translate(-77.1193 -11)"/><path class="cls-2" d="M391.7893,204.0807c-3.91-8.2247-7.5464-16.2315-11.5366-24.0571-1.4815-2.9156-1.0506-4.8493.9629-7.2566,6.7832-8.1184,18.003-10.4087,26.9062-4.6818,8.56,5.5063,14.2708,18.11,3.8622,28.4038C406.7171,201.6973,400.349,204.9823,391.7893,204.0807Z" transform="translate(-77.1193 -11)"/><path class="cls-3" d="M107.8915,82.723c4.1151-1.16,8.4562-1.7531,12.1641-3.61s6.7832-4.98,10.3768-7.7327c4.2694,3.8545,8.5467,7.7194,12.7441,11.5153-3.91,13.308-23.1048,25.2409-36.5007,22.8946C105.0878,98.7787,105.3673,93.5732,107.8915,82.723Z" transform="translate(-77.1193 -11)"/><path class="cls-3" d="M392.4888,100.8c-13.5528.6463-27.4512-6.5781-35.0083-18.1147q4.1176-7.0545,8.4641-14.4972c7.2351,1.551,14.26,3.006,21.2455,4.6311a3.7783,3.7783,0,0,1,2.5351,1.99c1.9655,8.0253,4.7321,15.9653,3.4552,24.4509A7.4754,7.4754,0,0,1,392.4888,100.8Z" transform="translate(-77.1193 -11)"/><path class="cls-3" d="M342.4274,153.833c-16.673,3.0272-30.654-5.8228-35.07-20.9982-2.4526-8.4189-2.07-16.9388-1.6147-25.9564,4.4-.5878,8.5494-1.1438,13.13-1.7607C319.6576,124.6553,323.9989,142.1874,342.4274,153.833Z" transform="translate(-77.1193 -11)"/><path class="cls-3" d="M160.0252,154.7294c13.88-15.0795,21.1575-33.29,25.3789-52.7373,8.3764.67,8.6265,2.3169,8.4322,8.7593-.3668,12.3107-2.7742,24.278-10.3686,34.4287C177.8231,152.7211,171.0854,158.4137,160.0252,154.7294Z" transform="translate(-77.1193 -11)"/><path class="cls-4" d="M283.4282,455.255c3.1284-5.4425,8.9138-5.8307,13.2575-5.5035,6.68.4946,12.6752-2.3355,19.131-2.059,3.5457.1544,7.1049.0267,10.76.0267a16.2846,16.2846,0,0,1,.6169,3.4528c-1.0851,10.8714-2.112,9.6211-11.0362,10.7012-5.1312.6224-10.3583.4788-15.54.6515C293.14,462.7747,288.344,460.825,283.4282,455.255Z" transform="translate(-77.1193 -11)"/><path class="cls-4" d="M210.8553,449.6076c-.25,4.4715-.4364,7.7674-.66,11.6723-3.94.3936-7.4505,1.0427-10.9591,1.0321-9.2331-.0292-18.474-.1624-27.691-.66-2.9657-.1623-7.0275-.54-6.9689-4.8517.0531-4.3173,4.2187-4.4769,7.1128-4.7084C184.3189,451.0734,196.9832,450.4482,210.8553,449.6076Z" transform="translate(-77.1193 -11)"/><path class="cls-2" d="M210.5148,396.5884H188.08v-18.857h22.4345Z" transform="translate(-77.1193 -11)"/><path class="cls-4" d="M225.5624,455.7232c6.1845-3.5113,30.5848-6.2458,41.733-4.7482.1887,1.6278.4867,3.3675.572,5.1151.1621,3.2319-1.3914,5.24-4.6526,5.49-8.5306.6467-17.0824,1.6866-25.6051,1.5322C232.9759,463.03,227.3926,462.4476,225.5624,455.7232Z" transform="translate(-77.1193 -11)"/><path class="cls-2" d="M306.27,373.2442h24.06v16.9521c-4.1656.58-7.8976,1.2955-11.6616,1.57-3.5724.2607-7.1766.0559-11.4778.0559C306.8844,385.7009,306.6,379.9473,306.27,373.2442Z" transform="translate(-77.1193 -11)"/><path class="cls-2" d="M329.1459,414.3041H307.5041V396.6257h22.7166C329.8669,402.44,329.545,407.75,329.1459,414.3041Z" transform="translate(-77.1193 -11)"/><path class="cls-2" d="M210.2675,402.06c0,4.61.037,8.8337-.0161,13.0606a3.6662,3.6662,0,0,1-3.8012,3.9234c-5.9982.16-12.0045.0534-18.37.0534V402.06Z" transform="translate(-77.1193 -11)"/><path class="cls-2" d="M269.2876,398.1072v17.45c-7.1447,1.588-13.8107.88-21.1681.9311v-17.205C255.24,398.8865,262.0923,398.5063,269.2876,398.1072Z" transform="translate(-77.1193 -11)"/><path class="cls-2" d="M188.8781,371.7411V354.555c7.9962.7553,15.234,1.439,22.7725,2.1491v15.037Z" transform="translate(-77.1193 -11)"/><path class="cls-2" d="M269.7877,376.391v16.17c-6.6871.5159-13.5419,1.0506-20.9448,1.6226V376.391Z" transform="translate(-77.1193 -11)"/><path class="cls-2" d="M248.2469,370.81V358.3455H271.73c-.5426,4.2639-1.016,7.9719-1.588,12.4646Z" transform="translate(-77.1193 -11)"/><path class="cls-2" d="M306.9242,357.2361h23.6607v10.0761c-8.0729.5747-15.7738,1.12-24.5092,1.74C306.3949,364.57,306.645,361.1516,306.9242,357.2361Z" transform="translate(-77.1193 -11)"/><path class="cls-3" d="M119.7152,49.635c2.4261,6.5171,4.5913,12.3319,6.8867,18.4977-4.04,4.7269-8.8019,8.9189-16.9416,8.6052A78.4488,78.4488,0,0,1,119.7152,49.635Z" transform="translate(-77.1193 -11)"/><path class="cls-3" d="M368.1869,62.4325c1.5428-5.9214,3.0085-11.5552,4.6869-17.9873,7.7142,5.8176,10.0257,14.1594,14.1327,22.1793C379.7156,67.8908,374.2227,65.0046,368.1869,62.4325Z" transform="translate(-77.1193 -11)"/><path class="cls-2" d="M268.8567,431.6261H248.01v-9.8712h20.8465Z" transform="translate(-77.1193 -11)"/><path class="cls-2" d="M328.55,428.53c-7.222.5108-13.7073.9681-20.8546,1.4709v-9.8366c6.9-.3778,13.7284-.75,21.2882-1.1626C328.8188,422.63,328.6992,425.2286,328.55,428.53Z" transform="translate(-77.1193 -11)"/><path class="cls-2" d="M188.0588,424.2685h21.3547c.258,2.3114.5426,4.8571.8992,8.0492a48.9389,48.9389,0,0,1-5.4292.8273c-2.6972.0931-5.4265-.3138-8.0969-.0586C188.3807,433.8872,188.0269,433.6478,188.0588,424.2685Z" transform="translate(-77.1193 -11)"/><path class="cls-2" d="M328.5529,434.1637v7.1c-6.8311,4.2879-13.7576.33-20.8413,1.4442-.1863-2.3965-.3377-4.3489-.5693-7.3016C314.226,434.9936,321.025,434.6028,328.5529,434.1637Z" transform="translate(-77.1193 -11)"/><path class="cls-2" d="M267.7715,437.6216c-.16,2.4022-.2874,4.3786-.4816,7.2885-6.0807.3271-12.0124.6518-18.6066,1.0081-.2925-3.03-.5186-5.37-.8008-8.2966Z" transform="translate(-77.1193 -11)"/><path class="cls-2" d="M210.6237,444.9847c-7.791-.4895-14.529,2.4471-21.6151-.4175v-5.7245h20.6656C209.927,440.4838,210.1822,442.1331,210.6237,444.9847Z" transform="translate(-77.1193 -11)"/><path class="cls-5" d="M332.6706,93.36c25.9776-11.9408,33.0877-33.6333,34.886-59.377,1.7743.6731,3.5137.9629,4.7959,1.8833,5.3679,3.8491,10.4247,8.15,13.1831,14.3057,3.6015,8.0386,7.7167,16.016,9.983,24.4534,5.7056,21.2349,4.4608,41.8607-9.9192,59.7545-4.1523,5.1658-10.0388,8.9484-15.1621,13.324-1.0108.8645-2.1785,1.5455-3.62,2.5509,3.051,6.6315,6.0356,13.1112,9.326,20.2586,1.4071-1.4123,2.7214-2.28,3.413-3.4977,4.9023-8.6185,23.9718-11.9994,33.7607-3.6336,6.4983,5.5515,11.09,12.9808,9.092,22.791-2.4686,12.1029-9.69,19.5671-20.9821,23.6022-1.6866.6039-3.4236,1.0533-5.509,1.6866,2.4392,6.5408,4.8517,12.8024,7.1261,19.1122,5.6978,15.8348,9.4006,31.9173,8.7515,49.01-.6172,16.2873-6.142,30.4892-15.8457,43.1535a86.0978,86.0978,0,0,1-19.8651,19.2506c-10.1638,6.9213-21.5833,10.0442-32.9894,13.5206-2.1439.6518-4.36,1.0615-7.07,1.7106-.1569,8.1315-.1384,16.25-.5107,24.35-1.1386,24.8579-2.2611,49.7237-3.7611,74.5655-.5268,8.6822-3.1629,11.2119-11.7041,11.9648a180.9957,180.9957,0,0,1-24.3366.7155c-7.198-.3405-13.4384-3.3757-17.4923-9.93-1.9737-3.1921-1.59-5.8467.7023-8.6371,2.6069-3.1732,6.057-4.6629,9.9167-5.3679,3.9659-.7234,7.9667-1.2608,12.4886-1.963V358.3294H277.2944c-.5268,2.7345-1.3116,5.1364-1.402,7.5625-.5584,15.3748-.91,30.76-1.4308,46.1353-.3007,8.8179-.83,17.6225-1.1732,26.435-.2021,5.2031-.1569,10.4086-.383,15.6063a65.32,65.32,0,0,1-.92,8.0359c-.6624,3.9076-3.2294,5.8547-7.0624,6.0756-9.467.548-18.9419,1.439-28.4062,1.3673-7.0038-.0534-13.4117-2.309-16.4736-9.7277-2.1491-5.2058-.87-9.0946,4.4609-10.6854,5.5621-1.66,11.3451-2.5563,17.96-3.9874V357.96c-8.3551-.463-16.3832-.9152-24.8925-1.394-.508,9.4484-1.1571,18.1787-1.4123,26.9192q-.7783,26.123-1.144,52.2561c-.0665,4.953.681,9.914.9577,14.8774a47.7052,47.7052,0,0,1-.0054,6.7832c-.742,8.6768-3.0617,11.0071-11.5737,11.289-9.0413.2952-18.0986.6066-27.1347.3963-4.0006-.0932-8.012-1.2873-11.9354-2.2981a9.4475,9.4475,0,0,1-7.1183-8.23A9.95,9.95,0,0,1,165.47,447.56c4.0618-1.1865,8.3921-1.4763,12.6136-2.1227,1.5057-.2288,3.0273-.3272,4.9715-.532V354.2783c-2.6252-.4974-5.0034-1.32-7.3919-1.3459-16.4815-.1811-31.2791-6.5917-46.34-12.1538-13-4.8038-22.6-14.21-31.5425-24.0225-7.1-7.7859-10.7944-18.064-12.1323-28.3823-1.9258-14.8534-1.5055-30.01,2.8755-44.4328,3.3357-10.9831,8.5094-21.4106,12.8743-32.08.42-1.0239.9365-2.0135,1.6068-3.4525a20.2655,20.2655,0,0,0-3.8411-1.2769C82.8287,205.2669,77.0275,193.1428,77.12,178.8c.0346-5.1762,1.0135-10.2967,4.469-14.6219,6.2164-7.7859,14.7151-8.818,23.3682-6.8788,7.4691,1.6729,14.6274,4.9527,19.6308,12.64q4.8437-7.589,8.8844-13.9225c-6.4346-4.94-12.4434-9.2542-18.1147-13.97-7.6208-6.339-11.9248-14.8987-13.5874-24.4136-3.0616-17.479-1.71-34.6894,5.0568-51.3011,2.0375-5.0034,3.6789-10.1692,5.7909-15.1381a24.3811,24.3811,0,0,1,4.256-6.8709c1.3778-1.5055,3.6015-2.2344,5.45-3.3037.894,1.6653,2.285,3.2373,2.607,5.0061,2.8595,15.6012,13.4436,25.4059,25.7807,33.4179,7.121,4.6256,15.258,7.6981,23.3124,11.6534,4.2693-5.6258,8.7487-10.2542,11.611-15.7313,2.1041-4.0193,2.237-9.1211,2.9766-13.7868a68.3833,68.3833,0,0,1,11.8343-29.3321,43.6485,43.6485,0,0,1,12.2015-11.5709,63.37,63.37,0,0,1,35.3755-9.6612c14.9678.298,29.06,3.8278,43.0976,8.3126C302.043,22.82,309.0736,30.169,312.8959,40.8623c3.37,9.4324,6.2537,18.9021,4.9637,29.1457a6.7659,6.7659,0,0,0,1.0691,4.3386c3.8919,5.5408,8.0174,10.9245,12.0419,16.3722C331.5107,91.4477,331.9577,92.2431,332.6706,93.36Zm-82.6466.9735c-6.6795,7.2379-13.0209,14.0927-23.1634,10.3687-11.1376-4.0937-11.5178-13.7283-10.188-23.9242-13.1377,10.39-18.5642,9.4218-28.5792,2.9766-1.947,2.777-3.9074,5.5649-6.2137,8.8577,3.8091,1.1786,6.6233,1.9819,9.3951,2.9208,4.4742,1.5137,6.9213,4.3971,7.3523,9.3872,1.0241,11.7518-1.0719,22.964-5.2563,33.83a45.8586,45.8586,0,0,1-17.08,21.413c-3.0191,2.1069-6.0167,3.2161-10.0733,2.4608-8.584-1.5935-17.3166-2.3649-26.7412-3.5726-8.0623,12.84-17.0744,26.1108-23.996,40.6477-2.1412,4.4955-4.45,8.9057-6.6658,13.3613A183.8573,183.8573,0,0,0,94.3681,251.69c-1.1013,4.5647-1.1571,9.3924-1.5616,14.1115-1.822,21.4236,1.7106,41.0359,19.0324,55.964,5.8388,5.03,11.603,10.1265,18.9446,12.9887,15.88,6.1927,32.0293,11.2626,49.213,12.1775q4.748.2517,9.4961.4949c21.4452,1.1171,42.8795,2.7558,64.3352,3.1946,21.02.4336,42.06-.383,63.0926-.5957,4.0646-.0428,8.1664.5665,12.1991.2233,23.8574-2.0162,43.6933-11.6216,59.05-30.5128,14.1111-17.3622,18.3459-37.1019,15.2124-58.5817-3.0722-21.0194-10.9591-40.6317-20.7879-59.2677-6.1287-11.6243-11.0869-23.6635-16.2154-35.6841-1.79-4.1975-3.3037-8.706-7.0226-11.8847-2.1066,1.1756-3.8357,2.2608-5.6656,3.1359-7.2858,3.4953-15.149,5.7-22.9986,4.1046-13.5127-2.7451-23.0517-10.6241-27.7438-24.169-3.2215-9.2862-2.6813-18.7186-2.7266-28.1829-.0373-7.5464.4628-7.9267,7.7088-9.1769,5.65-.9763,11.2571-2.1971,18.0853-3.5432-4.5725-5.7029-6.6767-11.4274-11.4592-15.3457-9.491,11.0338-14.2126,14.83-29.449,4.9716-3.0006,7.39-6.0941,15.1569-14.6568,17.2875C262.0765,105.4819,254.6815,103.3886,250.024,94.3339ZM222.19,60.0357c4.429,2.378,2.458,5.0754,2.2158,7.5838-.6864,7.1659-1.7983,14.3667-1.5828,21.5192.25,8.326,8.6425,12.7814,15.6515,8.4271,6.07-3.7693,10.7146-8.834,10.26-17.0186-.2819-5.0569-.4786-10.3052,2.1785-14.984,4.3892-.2181,4.328,2.5191,4.3492,5.3919.0425,5.65-.1408,11.34.4549,16.9388.6251,5.9026,3.1866,8.31,8.1105,9.4379,5.296,1.2129,9.3445-.5747,12.305-4.95a39.9,39.9,0,0,0,2.5-4.7907c3.051-6.1794,2.7105-12.7229,2.035-19.2958-.2582-2.5245-.7741-5.6286,2.6413-5.892,3.458-.2685,3.2983,2.9314,3.4446,5.4159a16.6168,16.6168,0,0,0,.3326,4.046c.8858,2.7663,1.6093,5.7481,3.2106,8.089,4.107,6.0143,11.0763,6.4931,16.3006,1.487,4.3092-4.12,6.1606-9.1293,6.4-15.1357.4045-10.3871-4.1814-19.3728-7.7646-28.5285a18.7951,18.7951,0,0,0-10.9273-10.5018A138.1927,138.1927,0,0,0,250.3884,17.268c-11.1509-.6224-20.9025,1.8541-30.6806,6.0276a35.7217,35.7217,0,0,0-15.742,13.5394c-7.02,10.6-9.76,22.8257-11.5949,35.1334-1.0721,7.19,5.7136,12.0206,12.502,9.382a16.6821,16.6821,0,0,0,6.5969-4.53,109.6216,109.6216,0,0,0,7.5755-11.1482C220.1226,64.0071,220.9926,62.2064,222.19,60.0357Zm-99.8276,79.6779c6.5517,5.6261,13.9412,8.387,20.9821,11.8477,7.0491,3.4633,12.5393,1.7051,17.306-3.9314a56.6075,56.6075,0,0,0,4.5674-5.868,95.1515,95.1515,0,0,0,11.85-24.9535c1.604-5.53,4.3464-10.8237,3.91-17.2823-5.41-1.5852-10.6852-3.128-15.8722-4.6468C155.3009,121.1786,148.7759,128.0228,122.3619,139.7136Zm24.9137-53.9317c-7.9533,17.9657-23.6953,23.0092-40.6875,26.2383a39.8543,39.8543,0,0,0,7.4933,18.8915c2.0693,2.966,4.32,3.8172,8.0305,2.9873,19.7081-4.4078,30.5316-18.1041,37.7961-35.5779.7156-1.7209.3433-3.894.4762-5.8279C155.9073,90.2,151.9146,88.1573,147.2756,85.7819Zm230.0566,48.8326c7.2591-7.9136,13.5234-16.38,14.3267-27.9328-15.0956-2.7772-28.5471-7.3628-37.8308-19.8571-4.1495,3.3862-7.7725,6.3468-11.6162,9.4776a224.4113,224.4113,0,0,0,13.9252,25.0069C361.1937,129.2919,367.8093,133.5558,377.3322,134.6145Zm-54.4081-30.2922c.9392,6.7271,1.17,13.5871,2.9526,20.0111,3.1976,11.5551,9.6534,20.9183,21.3733,25.5442,1.5455.6091,3.7453,1.29,4.9849.6543,6.3281-3.2585,12.4382-6.94,19.5592-11.0043-2.9609-1.3222-4.9425-1.8727-6.5332-2.9873-3.2931-2.3036-6.972-4.4369-9.4057-7.5039-3.6176-4.5513-6.3575-9.81-9.342-14.8456-3.0829-5.2-6.017-10.4963-9.0653-15.8351C332.9124,100.2205,328.3612,102.09,322.9241,104.3223ZM106.1226,201.29c4.5992-7.8845,8.8152-15.319,13.2627-22.6156,1.7157-2.8062,1.4232-5.171-.718-7.3122-5.7936-5.7937-12.6406-9.6239-21.03-9.2249-9.1984.4334-14.5451,5.99-14.7739,15.2737a41.4286,41.4286,0,0,0,1.5322,11.35c1.6547,6.24,6.1,9.9138,12.34,11.2438C99.8052,200.66,102.9678,200.8728,106.1226,201.29Zm285.6667,2.79c8.56.9016,14.9278-2.3834,20.1947-7.5917,10.4086-10.2942,4.6975-22.8975-3.8622-28.4038-8.9032-5.7269-20.123-3.4366-26.9062,4.6818-2.0135,2.4073-2.4444,4.341-.9629,7.2566C384.2429,187.8492,387.879,195.856,391.7893,204.0807ZM107.8915,82.723c-2.5242,10.85-2.8037,16.0557-1.2157,23.0675,13.3959,2.3463,32.5906-9.5866,36.5007-22.8946-4.1974-3.7959-8.4747-7.6608-12.7441-11.5153-3.5936,2.7532-6.6685,5.8759-10.3768,7.7327S112.0066,81.5632,107.8915,82.723ZM392.4888,100.8a7.4754,7.4754,0,0,0,.6916-1.54c1.2769-8.4856-1.49-16.4256-3.4552-24.4509a3.7783,3.7783,0,0,0-2.5351-1.99c-6.9853-1.6251-14.01-3.08-21.2455-4.6311q-4.3452,7.4455-8.4641,14.4972C365.0376,94.2223,378.936,101.4467,392.4888,100.8ZM342.4274,153.833c-18.4285-11.6456-22.77-29.1777-23.5545-48.7153-4.58.6169-8.73,1.1729-13.13,1.7607-.4549,9.0176-.8379,17.5375,1.6147,25.9564C311.7734,148.01,325.7544,156.86,342.4274,153.833Zm-182.4022.8964c11.06,3.6843,17.7979-2.0083,23.4425-9.5493,7.5944-10.1507,10.0018-22.118,10.3686-34.4287.1943-6.4424-.0558-8.089-8.4322-8.7593C181.1827,121.4393,173.9051,139.65,160.0252,154.7294ZM283.4282,455.255c4.9158,5.57,9.7119,7.52,17.1892,7.27,5.1815-.1727,10.4086-.0291,15.54-.6515,8.9242-1.08,9.9511.17,11.0362-10.7012a16.2846,16.2846,0,0,0-.6169-3.4528c-3.6549,0-7.2141.1277-10.76-.0267-6.4558-.2765-12.4515,2.5536-19.131,2.059C292.342,449.4243,286.5566,449.8125,283.4282,455.255Zm-72.5729-5.6474c-13.8721.8406-26.5364,1.4658-39.166,2.4845-2.8941.2315-7.06.3911-7.1128,4.7084-.0586,4.3119,4.0032,4.6894,6.9689,4.8517,9.217.4974,18.4579.6306,27.691.66,3.5086.0106,7.02-.6385,10.9591-1.0321C210.4189,457.375,210.6052,454.0791,210.8553,449.6076Zm-.34-53.0192v-18.857H188.08v18.857Zm15.0476,59.1348c1.83,6.7244,7.4135,7.307,12.0473,7.3893,8.5227.1544,17.0745-.8855,25.6051-1.5322,3.2612-.25,4.8147-2.2583,4.6526-5.49-.0853-1.7476-.3833-3.4873-.572-5.1151C256.1472,449.4774,231.7469,452.2119,225.5624,455.7232Zm80.7075-82.479c.33,6.7031.6145,12.4567.92,18.5775,4.3012,0,7.9054.2048,11.4778-.0559,3.764-.274,7.496-.99,11.6616-1.57V373.2442Zm22.876,41.06c.3991-6.5542.721-11.8638,1.0748-17.6784H307.5041v17.6784ZM210.2675,402.06H188.08v17.0374c6.3654,0,12.3717.1062,18.37-.0534a3.6662,3.6662,0,0,0,3.8012-3.9234C210.3045,410.8938,210.2675,406.67,210.2675,402.06Zm59.02-3.9529c-7.1953.3991-14.0474.7793-21.1681,1.1759v17.205c7.3574-.0507,14.0234.6569,21.1681-.9311Zm-80.41-26.3661h22.7725v-15.037c-7.5385-.71-14.7763-1.3938-22.7725-2.1491Zm80.91,4.65H248.8429v17.7928c7.4029-.572,14.2577-1.1067,20.9448-1.6226ZM248.2469,370.81h21.8946c.572-4.4927,1.0454-8.2007,1.588-12.4646H248.2469Zm58.6773-13.574c-.2792,3.9155-.5293,7.3337-.8485,11.8158,8.7354-.62,16.4363-1.165,24.5092-1.74V357.2361ZM119.7152,49.635A78.4488,78.4488,0,0,0,109.66,76.7379c8.14.3137,12.9013-3.8783,16.9416-8.6052C124.3065,61.9669,122.1413,56.1521,119.7152,49.635ZM368.1869,62.4325c6.0358,2.5721,11.5287,5.4583,18.82,4.192-4.107-8.02-6.4185-16.3617-14.1327-22.1793C371.1954,50.8773,369.73,56.5111,368.1869,62.4325Zm-99.33,369.1936v-9.8712H248.01v9.8712ZM328.55,428.53c.149-3.3013.2686-5.9.4336-9.5283-7.56.4124-14.3882.7848-21.2882,1.1626v9.8366C314.8429,429.498,321.3282,429.0407,328.55,428.53Zm-140.4914-4.2614c-.0319,9.3793.3219,9.6187,8.7278,8.8179,2.67-.2552,5.4.1517,8.0969.0586a48.9389,48.9389,0,0,0,5.4292-.8273c-.3566-3.1921-.6412-5.7378-.8992-8.0492Zm140.4941,9.8952c-7.5279.4391-14.3269.83-21.4106,1.2423.2316,2.9527.383,4.9051.5693,7.3016,7.0837-1.1143,14.01,2.8437,20.8413-1.4442Zm-60.7814,3.4579h-19.889c.2822,2.9262.5083,5.2668.8008,8.2966,6.5942-.3563,12.5259-.681,18.6066-1.0081C267.4841,442,267.6119,440.0238,267.7715,437.6216Zm-57.1478,7.3631c-.4415-2.8516-.6967-4.5009-.95-6.142H189.0086v5.7245C196.0947,447.4318,202.8327,444.4952,210.6237,444.9847Z" transform="translate(-77.1193 -11)"/><path class="cls-4" d="M222.19,60.0357c-1.1969,2.1707-2.0669,3.9714-3.1442,5.6365A109.6216,109.6216,0,0,1,211.47,76.82a16.6821,16.6821,0,0,1-6.5969,4.53c-6.7884,2.6386-13.5741-2.1919-12.502-9.382,1.8353-12.3077,4.575-24.5332,11.5949-35.1334a35.7217,35.7217,0,0,1,15.742-13.5394c9.7781-4.1735,19.53-6.65,30.6806-6.0276a138.1927,138.1927,0,0,1,43.9167,10.0069,18.7951,18.7951,0,0,1,10.9273,10.5018c3.5832,9.1557,8.1691,18.1414,7.7646,28.5285-.2394,6.0064-2.0908,11.0153-6.4,15.1357-5.2243,5.0061-12.1936,4.5273-16.3006-1.487-1.6013-2.3409-2.3248-5.3227-3.2106-8.089a16.6168,16.6168,0,0,1-.3326-4.046c-.1463-2.4845.0134-5.6844-3.4446-5.4159-3.4154.2634-2.8995,3.3675-2.6413,5.892.6755,6.5729,1.016,13.1164-2.035,19.2958a39.9,39.9,0,0,1-2.5,4.7907c-2.9605,4.3756-7.009,6.1632-12.305,4.95-4.9239-1.1279-7.4854-3.5353-8.1105-9.4379-.5957-5.5991-.4124-11.289-.4549-16.9388-.0212-2.8728.04-5.61-4.3492-5.3919-2.6571,4.6788-2.46,9.9271-2.1785,14.984.4549,8.1846-4.1893,13.2493-10.26,17.0186-7.009,4.3543-15.4015-.1011-15.6515-8.4271-.2155-7.1525.8964-14.3533,1.5828-21.5192C224.6475,65.1111,226.6185,62.4137,222.19,60.0357Z" transform="translate(-77.1193 -11)"/><path class="cls-2" d="M302.5061,261.8667c-3.4422-.5906-10.01-1.1383-16.2263-2.9154-12.4461-3.5511-20.0644-14.529-19.5589-27.5708.5532-14.1992,5.953-25.8423,18.5268-33.4843,5.5755-3.389,11.2678-5.1925,18.027-3.9714,5.4957.99,11.2945.2394,16.8032,1.165,10.5789,1.7743,19.9288,6.11,25.9458,15.6036,1.3034,2.0562,2.8489,4.4742,2.8783,6.7459.2473,18.32-.5668,29.9278-19.4873,40.2991C321.855,261.88,313.718,261.3693,302.5061,261.8667Zm5.4049-47.2044c-6.0859-.0561-12.1217,1.2394-15.5635,7.7352-3.1709,5.9851-3.6737,15.7,1.4894,19.3677,6.0224,4.2851,12.5,6.2057,19.7691,4.3064,7.5838-1.9843,13.3-11.4195,12.098-19.6815C324.6905,219.4369,316.7265,213.9971,307.911,214.6623Z" transform="translate(-77.1193 -11)"/><path class="cls-5" d="M307.3657,268.7773a60.6648,60.6648,0,0,1-22.767-2.5694,32.9682,32.9682,0,0,1-23.0278-28.0393c-1.0585-11.18.9629-21.9848,6.56-31.3028,7.121-11.8558,17.6146-19.9849,32.5054-19.8517,12.2521.109,24.3046,1.1225,35.482,7.0809,12.9037,6.8789,20.9211,18.9553,17.7342,34.5456-1.4017,6.8336-1.3778,13.9172-5.4663,20.0165-7.581,11.3078-17.8009,18.3143-31.5558,19.62C313.6886,268.5752,310.5232,268.618,307.3657,268.7773Zm-4.86-6.9106c11.2119-.4974,19.3489.0133,26.9086-4.1283,18.9205-10.3713,19.7346-21.98,19.4873-40.2991-.0294-2.2717-1.5749-4.69-2.8783-6.7459-6.017-9.4935-15.3669-13.8293-25.9458-15.6036-5.5087-.9256-11.3075-.1754-16.8032-1.165-6.7592-1.2211-12.4515.5824-18.027,3.9714-12.5738,7.642-17.9736,19.2851-18.5268,33.4843-.5055,13.0418,7.1128,24.02,19.5589,27.5708C292.4962,260.7284,299.0639,261.2761,302.5061,261.8667Z" transform="translate(-77.1193 -11)"/><path class="cls-5" d="M307.911,214.6623c8.8155-.6652,16.7795,4.7746,17.793,11.7278,1.2023,8.262-4.5142,17.6972-12.098,19.6815-7.27,1.8993-13.7467-.0213-19.7691-4.3064-5.1631-3.6682-4.66-13.3826-1.4894-19.3677C295.7893,215.9017,301.8251,214.6062,307.911,214.6623Zm.4922,26.9885c.0373-.1678.0719-.33.1117-.4949a21.9991,21.9991,0,0,0,3.3757-.0265c5.1843-.8087,9.9483-7.0784,9.4749-12.3586-.49-5.5115-5.2483-9.5839-11.204-9.3366a38.9127,38.9127,0,0,0-8.0014,1.1013c-4.1309,1.0615-7.0223,5.3387-7.3628,10.2782-.3192,4.6259.8991,6.6369,5.8732,8.6637A67.3144,67.3144,0,0,0,308.4032,241.6508Z" transform="translate(-77.1193 -11)"/><path class="cls-4" d="M308.4032,241.6508a67.3144,67.3144,0,0,1-7.7327-2.1734c-4.9741-2.0268-6.1924-4.0378-5.8732-8.6637.3405-4.94,3.2319-9.2167,7.3628-10.2782a38.9127,38.9127,0,0,1,8.0014-1.1013c5.9557-.2473,10.7145,3.8251,11.204,9.3366.4734,5.28-4.2906,11.55-9.4749,12.3586a21.9991,21.9991,0,0,1-3.3757.0265C308.4751,241.3209,308.4405,241.483,308.4032,241.6508Z" transform="translate(-77.1193 -11)"/><path class="cls-2" d="M308.2381,236.0938a33.0668,33.0668,0,0,1-3.8648-1.0879c-2.49-1.0108-3.0962-2.0162-2.9366-4.33.17-2.4687,1.6144-4.6072,3.6813-5.1394a19.6486,19.6486,0,0,1,4.0008-.55,5.2141,5.2141,0,0,1,5.6018,4.6684,6.2856,6.2856,0,0,1-4.74,6.1791,10.81,10.81,0,0,1-1.6863.0133C308.2727,235.929,308.2569,236.0113,308.2381,236.0938Z" transform="translate(-77.1193 -11)"/><path class="cls-2" d="M177.4987,264.8487c-6.5144-.5055-12.7283-.9125-18.7638-3.4979-12.901-5.53-19.6839-15.109-19.3489-28.8906.1463-6.03.6436-11.9966,2.7238-17.9763a30.2085,30.2085,0,0,1,13.22-16.55c11.1988-6.8312,23.512-7.794,36.0431-5.2137,8.2383,1.7,15.87,4.8386,21.8229,11.478,7.4266,8.2751,9.5123,17.8431,8.0384,28.39-1.862,13.3479-10.1477,26.4246-24.4215,29.1166C190.4051,262.9121,183.9387,263.8085,177.4987,264.8487Zm17.5-38.3148a14.9292,14.9292,0,0,0-15.5344-14.4759c-9.7808.3912-17.4125,6.6607-17.4869,14.3722-.088,9.0546,8.7221,17.3245,18.2024,17.0878C188.4951,243.31,195.2064,235.6125,194.9989,226.5339Z" transform="translate(-77.1193 -11)"/><path class="cls-5" d="M177.2514,271.3391c-8.0253.4176-15.8512-.2767-23.0359-4.2587-12.1721-6.7432-20.1789-16.202-21.0085-30.88a56.7084,56.7084,0,0,1,7.9985-32.3511,35.9169,35.9169,0,0,1,11.8768-11.6748c11.4168-7.07,24.326-8.4935,37.3174-6.2536,14.6807,2.53,26.8343,9.3074,33.3459,23.7114,3.0829,6.8175,3.5007,14.082,2.8116,21.2482-1.3513,14.0848-6.6792,26.2914-19.3116,34.0215-7.057,4.3173-15.0237,5.9371-23.2165,6.4184C181.7787,271.4535,179.5124,271.3391,177.2514,271.3391Zm.2473-6.49c6.44-1.04,12.9064-1.9366,19.3143-3.1441,14.2738-2.692,22.56-15.7687,24.4215-29.1166,1.4739-10.5471-.6118-20.1151-8.0384-28.39-5.9532-6.6394-13.5846-9.7784-21.8229-11.478-12.5311-2.58-24.8443-1.6175-36.0431,5.2137a30.2085,30.2085,0,0,0-13.22,16.55c-2.08,5.98-2.5775,11.9463-2.7238,17.9763-.335,13.7816,6.4479,23.36,19.3489,28.8906C164.77,263.9362,170.9843,264.3432,177.4987,264.8487Z" transform="translate(-77.1193 -11)"/><path class="cls-5" d="M194.9989,226.5339c.2075,9.0786-6.5038,16.7765-14.8189,16.9841-9.48.2367-18.29-8.0332-18.2024-17.0878.0744-7.7115,7.7061-13.981,17.4869-14.3722A14.9292,14.9292,0,0,1,194.9989,226.5339ZM179.3847,238.06a10.7923,10.7923,0,0,0,11.1215-9.6982c.7419-5.7032-2.2772-10.4433-8.4031-10.9249-3.99-.3137-8.3391,1.16-12.1508,2.74-1.53.63-2.6653,3.6254-2.91,5.6683C166.2761,232.2848,172.3144,238.0436,179.3847,238.06Z" transform="translate(-77.1193 -11)"/><path class="cls-4" d="M179.3847,238.06c-7.07-.016-13.1086-5.7748-12.3426-12.2148.2449-2.0429,1.3807-5.038,2.91-5.6683,3.8117-1.58,8.1609-3.0537,12.1508-2.74,6.1259.4816,9.145,5.2217,8.4031,10.9249A10.7923,10.7923,0,0,1,179.3847,238.06Z" transform="translate(-77.1193 -11)"/><path class="cls-2" d="M179.0921,232.8939c-3.538-.0079-6.5544-2.8887-6.1714-6.1075.1226-1.0214.6892-2.519,1.4524-2.8355a13.8828,13.8828,0,0,1,6.0755-1.3671c3.0643.2394,4.5753,2.6095,4.2029,5.4608A5.3949,5.3949,0,0,1,179.0921,232.8939Z" transform="translate(-77.1193 -11)"/><path class="cls-6" d="M223.7723,35.7259a74.4588,74.4588,0,0,0,.2231,15.2911,33.3308,33.3308,0,0,0,1.8227,7.2282c.903,2.2306,2.0724,4.4573,3.7536,5.713a3.3745,3.3745,0,0,0,4.81-.1862,13.1771,13.1771,0,0,0,3.0522-5.8112c1.2353-4.5952,1.2507-9.6163.9624-14.5511l4.743-.0332c-.1237,6.5253.48,13.1068,2.5512,18.9916a20.7089,20.7089,0,0,0,4.5326,7.6339,11.37,11.37,0,0,0,3.28,2.297,8.6787,8.6787,0,0,0,3.6195.6093,8.8549,8.8549,0,0,0,3.5557-1.2285,12.8115,12.8115,0,0,0,3.0543-2.7831,22.2363,22.2363,0,0,0,3.91-8.0851c1.6934-6.0348,1.7546-12.64,1.0733-19.1236l4.5123.1528c-.93,4.2269-1.1261,8.7157.5445,12.4167,1.5225,3.6741,5.356,6.3217,9.371,5.6217A8.8682,8.8682,0,0,0,288.3605,57a12.3,12.3,0,0,0,2.7312-5.8008,21.0161,21.0161,0,0,0,.17-6.7706,38.9382,38.9382,0,0,0-1.3908-6.8144c1.8784,4.2481,3.288,8.926,2.8031,13.8223a14.2415,14.2415,0,0,1-2.522,6.9923,10.97,10.97,0,0,1-6.4437,4.306c-5.3319,1.3839-11.1661-1.9644-13.402-6.7863-2.4379-4.8046-2.3581-10.1544-1.565-15.0052a2.2755,2.2755,0,0,1,4.4994.0539l.0129.0988c.9454,6.8723,1.1537,14.0085-.5788,21.0748a27.39,27.39,0,0,1-4.7817,10.0375,18.1085,18.1085,0,0,1-4.3664,4.0233,14.216,14.216,0,0,1-5.9128,2.0759,13.2636,13.2636,0,0,1-6.2616-1.0318,16.71,16.71,0,0,1-4.944-3.4943,25.8969,25.8969,0,0,1-5.68-9.6485c-2.4068-6.8994-2.6224-14.0422-2.3339-20.9539l.0021-.0494a2.3723,2.3723,0,0,1,4.741.0162,46.7075,46.7075,0,0,1-1.8225,16.0113,16.3454,16.3454,0,0,1-4.5572,7.38,6.7123,6.7123,0,0,1-9.169-.1962,15.0772,15.0772,0,0,1-4.13-7.306,35.4308,35.4308,0,0,1-1.1869-7.8588A60.6554,60.6554,0,0,1,223.7723,35.7259Z" transform="translate(-77.1193 -11)"/><path class="cls-7" d="M159.3788,304.77c15.774,0,15.8-24.5147,0-24.5147-15.774,0-15.8,24.5147,0,24.5147Z" transform="translate(-77.1193 -11)"/><path class="cls-7" d="M341.2755,303.9535c15.774,0,15.8-24.5147,0-24.5147-15.774,0-15.8,24.5147,0,24.5147Z" transform="translate(-77.1193 -11)"/><path class="cls-2" d="M268.92,289.5488c3.0962,6.3441,1.9473,12.1348-1.5853,17.4948a8.9468,8.9468,0,0,1-9.427,4.0857c-4.022-.7741-6.1286-3.6415-6.2406-7.78-.0771-3.0883-.013-6.1766-.013-9.4324C257.4044,292.4587,262.8148,291.094,268.92,289.5488Z" transform="translate(-77.1193 -11)"/><path class="cls-2" d="M231.5943,290.5435c5.3627,1.3034,9.6931,2.3567,14.3057,3.4768,1.25,4.41-.2528,8.3469-2.5752,11.9566-1.6384,2.543-4.168,4.4875-7.3707,3.74a6.9253,6.9253,0,0,1-5.6207-6.8151C230.2988,298.9864,231.0942,295.06,231.5943,290.5435Z" transform="translate(-77.1193 -11)"/><path class="cls-5" d="M237.1643,337.9209c-11.696-.109-22.2084-4.3756-31.968-10.1851-10.1079-6.0115-16.1783-14.97-15.9227-27.3.1222-6.0622-.54-12.1189,2.5827-17.8965,4.6365-8.5864,15.2977-12.9862,24.2009-8.9508a67.5171,67.5171,0,0,1,12.0179,7.4453,31.7584,31.7584,0,0,0,24.0892,6.3681c2.9071-.4017,5.804-.9258,8.6741-1.5428,4.3519-.9337,7.7834-3.4154,10.869-6.5489,5.7694-5.8522,12.8478-8.0972,20.9954-7.5094,9.1849.66,15.1755,6.3869,15.5636,15.6357.4336,10.4245-2.46,20.083-7.2139,29.316-5.1579,10.0254-13.4278,15.7444-24.2379,17.8113-8.4031,1.6041-16.9045,2.6735-25.3634,3.982m-3.7824-29.3743c-2.1545,1.4761-3.7428,2.7475-5.49,3.7319-6.3894,3.5991-12.0338,1.7422-14.8-5.1072a17.8728,17.8728,0,0,1-1.1465-7.198c.1676-4.2481.8591-8.4775,1.314-12.5927-2.5748-2.1172-4.7534-4.0909-7.1343-5.7854a25.9882,25.9882,0,0,0-4.849-2.41c-8.65-3.7028-16.6411-1.0375-19.3728,7.5783-3.3969,10.7224-2.293,22.44,6.8387,30.55a53.805,53.805,0,0,0,27.4273,12.5553c14.8058,2.418,29.7791,1.415,44.4489-1.7664,7.3125-1.588,14.4465-4.28,19.0351-10.7941a49.911,49.911,0,0,0,8.8844-27.3636c.3566-9.3155-4.6019-14.0076-13.8056-13.1646a27.6153,27.6153,0,0,0-7.86,1.8808c-6.0516,2.479-7.9321,6.4692-7.2566,12.7256a45.4373,45.4373,0,0,1-.3457,10.693c-.9258,6.9453-4.8146,11.776-11.7174,13.3452C255.5558,317.4762,250.9486,314.3931,247.6688,309.1717ZM268.92,289.5488c-6.1047,1.5452-11.5151,2.91-17.2659,4.3677,0,3.2558-.0641,6.3441.013,9.4324.112,4.1389,2.2186,7.0063,6.2406,7.78a8.9468,8.9468,0,0,0,9.427-4.0857C270.8668,301.6836,272.0157,295.8929,268.92,289.5488Zm-37.3252.9947c-.5,4.5167-1.2955,8.4429-1.2609,12.3584a6.9253,6.9253,0,0,0,5.6207,6.8151c3.2027.7474,5.7323-1.1971,7.3707-3.74,2.3224-3.61,3.8252-7.5464,2.5752-11.9566C241.2874,292.9,236.957,291.8469,231.5943,290.5435Z" transform="translate(-77.1193 -11)"/><path class="cls-4" d="M247.6688,309.1717c3.28,5.2214,7.887,8.3045,14.17,6.8785,6.9028-1.5692,10.7916-6.4,11.7174-13.3452a45.4373,45.4373,0,0,0,.3457-10.693c-.6755-6.2564,1.205-10.2466,7.2566-12.7256a27.6153,27.6153,0,0,1,7.86-1.8808c9.2037-.843,14.1622,3.8491,13.8056,13.1646a49.911,49.911,0,0,1-8.8844,27.3636c-4.5886,6.5144-11.7226,9.2061-19.0351,10.7941-14.67,3.1814-29.6431,4.1844-44.4489,1.7664a53.805,53.805,0,0,1-27.4273-12.5553c-9.1317-8.11-10.2356-19.8278-6.8387-30.55,2.7317-8.6158,10.7224-11.2811,19.3728-7.5783a25.9882,25.9882,0,0,1,4.849,2.41c2.3809,1.6945,4.56,3.6682,7.1343,5.7854-.4549,4.1152-1.1464,8.3446-1.314,12.5927a17.8728,17.8728,0,0,0,1.1465,7.198c2.7663,6.8494,8.4107,8.7063,14.8,5.1072C243.926,311.9192,245.5143,310.6478,247.6688,309.1717Z" transform="translate(-77.1193 -11)"/></svg>